<?xml version="1.0" encoding="UTF-8" standalone="no"?>
<!-- Created with Inkscape (http://www.inkscape.org/) -->

<svg
   xmlns:dc="http://purl.org/dc/elements/1.1/"
   xmlns:cc="http://creativecommons.org/ns#"
   xmlns:rdf="http://www.w3.org/1999/02/22-rdf-syntax-ns#"
   xmlns:svg="http://www.w3.org/2000/svg"
   xmlns="http://www.w3.org/2000/svg"
   xmlns:sodipodi="http://sodipodi.sourceforge.net/DTD/sodipodi-0.dtd"
   xmlns:inkscape="http://www.inkscape.org/namespaces/inkscape"
   width="411.48596"
   height="96"
   id="svg2"
   version="1.1"
   inkscape:version="0.48.4 r9939"
   sodipodi:docname="logo.svg">
  <defs
     id="defs4" />
  <sodipodi:namedview
     id="base"
     pagecolor="#ffffff"
     bordercolor="#666666"
     borderopacity="0"
     inkscape:pageopacity="0.0"
     inkscape:pageshadow="2"
     inkscape:zoom="0.98994949"
     inkscape:cx="311.68391"
     inkscape:cy="-190.62477"
     inkscape:document-units="px"
     inkscape:current-layer="layer1"
     showgrid="false"
     inkscape:window-width="990"
     inkscape:window-height="949"
     inkscape:window-x="260"
     inkscape:window-y="35"
     inkscape:window-maximized="0"
     inkscape:showpageshadow="false"
     fit-margin-top="0"
     fit-margin-left="0"
     fit-margin-right="0"
     fit-margin-bottom="0" />
  <metadata
     id="metadata7">
    <rdf:RDF>
      <cc:Work
         rdf:about="">
        <dc:format>image/svg+xml</dc:format>
        <dc:type
           rdf:resource="http://purl.org/dc/dcmitype/StillImage" />
        <dc:title />
      </cc:Work>
    </rdf:RDF>
  </metadata>
  <g
     inkscape:label="Layer 1"
     inkscape:groupmode="layer"
     id="layer1"
     transform="translate(-0.5370386,-6.6294808)">
    <g
       id="g3147"
       transform="matrix(0.95999998,0,0,0.95999998,0.02148155,4.1051808)">
      <text
         sodipodi:linespacing="125%"
         id="text2985"
         y="79.158524"
         x="-0.68640465"
         style="font-size:61.20578384px;font-style:normal;font-variant:normal;font-weight:bold;font-stretch:normal;line-height:125%;letter-spacing:0px;word-spacing:0px;fill:#4b2e4c;fill-opacity:1;stroke:none;font-family:RockoFLF;-inkscape-font-specification:RockoFLF Bold"
         xml:space="preserve"><tspan
           style="font-weight:bold;-inkscape-font-specification:RockoFLF Bold"
           y="79.158524"
           x="-0.68640465"
           id="tspan2987"
           sodipodi:role="line">children of</tspan></text>
      <g
         transform="matrix(0.18873842,0,0,0.18873842,324.57043,-1.249507)"
         id="g3125">
        <g
           id="g3103">
          <path
             style="fill:#4b2e4c"
             inkscape:connector-curvature="0"
             d="m 275.3,42.02 c 0,0 164.761,-83.208 184.59,78.006 0,0 179.337,93.605 43.395,258.289 0,0 45.853,175.082 -149.165,140.414 0,0 -106.72,85.814 -224.063,-25.132 0,0 -118.694,18.222 -90.356,-126.036 0,0 -93.224,-132.11 33.458,-230.2 C 73.158,137.362 118.8,-23.854 275.3,42.02 z"
             id="path3105" />
        </g>
        <g
           id="g3107">
          <g
             id="g3109">
            <path
               style="fill:#ffffff"
               inkscape:connector-curvature="0"
               d="m 112.868,178.604 c -2.517,14.339 -6.063,28.458 -9.224,42.662 -3.71,16.674 -6.114,33.497 -7.851,50.486 -3.257,31.86 -4.556,63.467 8.755,93.396 6.343,14.263 16.397,27.53 26.793,39.043 8.523,9.438 19.147,17.998 30.681,23.446 12.395,5.855 25.421,9.429 39.26,9.012 13.988,-0.422 26.504,-4.452 38.999,-10.467 21.267,-10.239 38.857,-29.063 51.713,-48.457 12.708,-19.172 20.625,-42.094 24.566,-64.657 8.263,-47.309 3.303,-97.159 -12.63,-142.406 -5.427,-15.41 -20.302,-25.52 -36.904,-20.953 -14.932,4.107 -26.388,21.47 -20.953,36.903 6.239,17.719 10.6,36.023 13.181,54.627 -0.357,-2.659 -0.715,-5.317 -1.072,-7.975 2.868,21.501 3.329,43.284 0.517,64.817 0.357,-2.658 0.714,-5.316 1.071,-7.976 -2.032,14.754 -5.612,29.213 -11.284,43.002 1.008,-2.389 2.016,-4.778 3.024,-7.167 -2.814,6.661 -6.081,13.079 -9.876,19.235 -1.881,3.051 -3.943,5.985 -6.088,8.855 6.192,-8.286 1.998,-2.63 0.481,-0.83 -1.159,1.376 -2.375,2.702 -3.598,4.021 -2.409,2.597 -4.981,5.042 -7.606,7.417 -1.265,1.145 -2.572,2.24 -3.887,3.326 -3.824,3.161 6.886,-5.096 1.146,-0.904 -5.022,3.666 -10.459,6.741 -16.181,9.167 2.389,-1.008 4.777,-2.016 7.166,-3.024 -4.697,1.901 -9.511,3.284 -14.525,4.041 2.658,-0.357 5.317,-0.714 7.975,-1.071 -4.551,0.597 -9.073,0.646 -13.634,0.121 2.658,0.357 5.317,0.714 7.975,1.071 -4.709,-0.643 -9.224,-1.875 -13.631,-3.648 2.389,1.009 4.777,2.017 7.166,3.024 -4.409,-1.876 -8.525,-4.214 -12.46,-6.943 -1.836,-1.273 -5.769,-4.593 1.964,1.576 -1.048,-0.836 -2.055,-1.722 -3.062,-2.606 -2.124,-1.866 -4.115,-3.879 -6.065,-5.923 -2.1,-2.201 -4.06,-4.533 -5.978,-6.892 -3.791,-4.662 4.407,5.878 0.761,0.926 -1.003,-1.362 -1.959,-2.759 -2.916,-4.154 -3.882,-5.662 -7.489,-11.581 -10.281,-17.86 1.008,2.39 2.016,4.778 3.024,7.167 -3.12,-7.463 -5.016,-15.214 -6.108,-23.218 0.357,2.658 0.714,5.316 1.071,7.976 -2.775,-22.809 0.049,-46.475 3.01,-69.145 -0.357,2.659 -0.714,5.317 -1.071,7.975 3.317,-23.992 10.26,-47.239 14.442,-71.066 1.446,-8.241 1.343,-15.661 -3.024,-23.117 -3.929,-6.706 -10.43,-11.724 -17.929,-13.787 -14.619,-4.021 -34.073,4.83 -36.903,20.954 l 0,0 z"
               id="path3111" />
          </g>
        </g>
        <g
           id="g3113">
          <g
             id="g3115">
            <path
               style="fill:#ffffff"
               inkscape:connector-curvature="0"
               d="m 408.064,400.958 c -0.063,-20.153 -2.031,-40.226 -3.545,-60.305 -1.434,-19.013 -3.066,-38.764 -0.563,-57.755 -0.357,2.658 -0.714,5.317 -1.071,7.976 0.577,-3.621 1.568,-7.08 2.938,-10.479 -1.008,2.389 -2.017,4.777 -3.024,7.166 1.322,-3.075 2.898,-5.979 4.727,-8.784 1.371,-2.103 5.376,-6.82 -1.352,1.562 1.176,-1.466 2.462,-2.839 3.771,-4.186 1.047,-1.078 2.162,-2.087 3.285,-3.083 5.172,-4.591 -6.396,4.538 -0.769,0.564 2.992,-2.113 6.229,-3.858 9.57,-5.349 -2.389,1.008 -4.777,2.016 -7.166,3.024 3.9,-1.644 7.894,-2.823 12.085,-3.431 -2.658,0.357 -5.316,0.714 -7.975,1.072 3.017,-0.358 5.989,-0.399 9.011,-0.066 -2.659,-0.357 -5.317,-0.714 -7.976,-1.072 2.643,0.375 5.158,1.023 7.646,1.993 -2.389,-1.008 -4.777,-2.016 -7.166,-3.024 1.241,0.534 2.433,1.123 3.611,1.784 0.593,0.346 1.172,0.712 1.739,1.099 3.959,2.601 -6.366,-5.239 -2.747,-2.063 2.009,1.764 6.432,7.617 -0.147,-1.009 1.266,1.658 2.313,3.472 3.313,5.297 7.849,14.322 27.235,18.853 41.046,10.763 14.387,-8.428 18.623,-26.702 10.763,-41.046 -5.783,-10.552 -14.682,-20.25 -25.469,-25.809 -13.418,-6.917 -26.928,-7.902 -41.6,-5.775 -22.695,3.29 -41.807,19.469 -54.652,37.545 -14.89,20.953 -14.125,48.387 -13.081,72.892 1.145,26.863 4.714,53.584 4.798,80.498 0.051,16.353 13.607,30 30,30 16.316,0.001 30.051,-13.644 30,-29.999 l 0,0 z"
               id="path3117" />
          </g>
        </g>
      </g>
    </g>
  </g>
</svg>
